# xmcd
#
# Track frame offsets:
#	150
#	16949
#	32791
#	49076
#	69408
#	88166
#	101877
#	128033
#	146789
#	161235
#	175812
#	192654
#	213378
#
# Disc length: 3157 seconds
#
# Revision: 0
# Processed by: cddbd v1.4PL0 Copyright (c) Steve Scherf et al.
# Submitted via: EasyCDDAExtractor 4.6.9.1
#
DISCID=c10c530d
DTITLE=Pawel Baczkowski - Moj glos - moj krzyk
DYEAR=1900
DGENRE=
TTITLE0=Urodzony by zyc
TTITLE1=Moj glos - moj krzyk
TTITLE2=Za lepsze dni
TTITLE3=Jak w kalejdoskopie
TTITLE4=Jesienny wieczor w NDM
TTITLE5=Caly plone
TTITLE6=Pokochalem to co sie "W droge" zwie
TTITLE7=Piosenka w 1402
TTITLE8=Rady i przestrogi dla rockandrollowych mlodziencow
TTITLE9=W pogoni za szczesciem
TTITLE10=Zacznijmy od nowa
TTITLE11=To juz inny swiat
TTITLE12=Teraz ide tam, gdzie raj
EXTD=
EXTT0=
EXTT1=
EXTT2=
EXTT3=
EXTT4=
EXTT5=
EXTT6=
EXTT7=
EXTT8=
EXTT9=
EXTT10=
EXTT11=
EXTT12=
PLAYORDER=
